<svg width="157" height="28" viewBox="0 0 157 28" fill="none" xmlns="http://www.w3.org/2000/svg">
<path d="M27.5002 26C26.2006 26 25.3999 25.4 24.0917 24.6934C22.7835 23.9867 18.9999 21.1416 18.9999 17.6C18.9999 15.1975 18.3806 13.2543 17.3259 11.7057C16.279 10.169 14.8608 9.10428 13.3855 8.35272C12.6745 7.99064 11.9347 7.69452 11.198 7.4498C10.7685 7.30724 10.5192 6.84608 10.7056 6.4338C11.8866 3.81916 14.5169 2 17.5724 2C21.7316 2 25.1034 5.37168 25.1034 9.53104C25.1034 10.4209 24.9491 11.2748 24.6657 12.0672C25.8662 11.2582 27.3126 10.7861 28.869 10.7861C33.0282 10.7861 36.3998 14.1578 36.3998 18.3172C36.3998 23.3244 31.9998 26 27.5002 26Z" fill="#8FB2F5"/>
<path d="M0 17.6896C0 21.6593 2.6172 24.967 6.08436 25.6978C6.61952 25.8933 7.19728 26 7.8 26H19.501C19.8934 26 20.0642 25.4752 19.7646 25.2216C17.7197 23.4914 16.2 21.0529 16.2 17.6C16.2 15.7027 15.7195 14.3208 15.0117 13.282C14.2959 12.2312 13.2891 11.4458 12.1146 10.8474C10.9293 10.2437 9.6424 9.85913 8.41348 9.58649C8.12404 9.54997 7.82948 9.53101 7.53104 9.53101C3.37168 9.53101 0 13.1838 0 17.6896Z" fill="#8FB2F5"/>
<path d="M47.0416 20.824L43 7H45.4288L48.184 16.984L50.9296 7.0192L53.3584 7L56.1136 16.984L58.8592 7H61.288L57.256 20.824H54.9712L52.1392 10.9936L49.3264 20.824H47.0416Z" fill="#FAFAFA"/>
<path d="M66.4243 21.112C65.3747 21.112 64.4531 20.8848 63.6595 20.4304C62.8659 19.976 62.2451 19.3456 61.7971 18.5392C61.3555 17.7328 61.1347 16.8048 61.1347 15.7552C61.1347 14.6224 61.3523 13.64 61.7875 12.808C62.2227 11.9696 62.8275 11.32 63.6019 10.8592C64.3763 10.3984 65.2723 10.168 66.2899 10.168C67.3651 10.168 68.2771 10.4208 69.0259 10.9264C69.7811 11.4256 70.3411 12.1328 70.7059 13.048C71.0707 13.9632 71.2083 15.0416 71.1187 16.2832H68.8243V15.4384C68.8179 14.312 68.6195 13.4896 68.2291 12.9712C67.8387 12.4528 67.2243 12.1936 66.3859 12.1936C65.4387 12.1936 64.7347 12.488 64.2739 13.0768C63.8131 13.6592 63.5827 14.5136 63.5827 15.64C63.5827 16.6896 63.8131 17.5024 64.2739 18.0784C64.7347 18.6544 65.4067 18.9424 66.2899 18.9424C66.8595 18.9424 67.3491 18.8176 67.7587 18.568C68.1747 18.312 68.4947 17.944 68.7187 17.464L71.0035 18.1552C70.6067 19.0896 69.9923 19.816 69.1603 20.3344C68.3347 20.8528 67.4227 21.112 66.4243 21.112ZM62.8531 16.2832V14.536H69.9859V16.2832H62.8531Z" fill="#FAFAFA"/>
<path d="M75.9724 21.112C75.2236 21.112 74.59 20.9712 74.0716 20.6896C73.5532 20.4016 73.1596 20.0208 72.8908 19.5472C72.6284 19.0736 72.4972 18.552 72.4972 17.9824C72.4972 17.4832 72.5804 17.0352 72.7468 16.6384C72.9132 16.2352 73.1692 15.8896 73.5148 15.6016C73.8604 15.3072 74.3084 15.0672 74.8588 14.8816C75.2748 14.7472 75.7612 14.6256 76.318 14.5168C76.8812 14.408 77.4892 14.3088 78.142 14.2192C78.8012 14.1232 79.4892 14.0208 80.206 13.912L79.3804 14.3824C79.3868 13.6656 79.2268 13.1376 78.9004 12.7984C78.574 12.4592 78.0236 12.2896 77.2492 12.2896C76.782 12.2896 76.3308 12.3984 75.8956 12.616C75.4604 12.8336 75.1564 13.208 74.9836 13.7392L72.8716 13.0768C73.1276 12.2 73.614 11.496 74.3308 10.9648C75.054 10.4336 76.0268 10.168 77.2492 10.168C78.1708 10.168 78.9804 10.3184 79.678 10.6192C80.382 10.92 80.9036 11.4128 81.2428 12.0976C81.4284 12.4624 81.5404 12.8368 81.5788 13.2208C81.6172 13.5984 81.6364 14.0112 81.6364 14.4592V20.824H79.6108V18.5776L79.9468 18.9424C79.4796 19.6912 78.9324 20.2416 78.3052 20.5936C77.6844 20.9392 76.9068 21.112 75.9724 21.112ZM76.4332 19.2688C76.958 19.2688 77.406 19.176 77.7772 18.9904C78.1484 18.8048 78.4428 18.5776 78.6604 18.3088C78.8844 18.04 79.0348 17.7872 79.1116 17.5504C79.2332 17.256 79.3004 16.92 79.3132 16.5424C79.3324 16.1584 79.342 15.848 79.342 15.6112L80.0524 15.8224C79.3548 15.9312 78.7564 16.0272 78.2572 16.1104C77.758 16.1936 77.3292 16.2736 76.9708 16.3504C76.6124 16.4208 76.2956 16.5008 76.0204 16.5904C75.7516 16.6864 75.5244 16.7984 75.3388 16.9264C75.1532 17.0544 75.0092 17.2016 74.9068 17.368C74.8108 17.5344 74.7628 17.7296 74.7628 17.9536C74.7628 18.2096 74.8268 18.4368 74.9548 18.6352C75.0828 18.8272 75.2684 18.9808 75.5116 19.096C75.7612 19.2112 76.0684 19.2688 76.4332 19.2688Z" fill="#FAFAFA"/>
<path d="M90.2125 20.824C89.5277 20.952 88.8557 21.0064 88.1965 20.9872C87.5437 20.9744 86.9581 20.856 86.4397 20.632C85.9213 20.4016 85.5277 20.04 85.2589 19.5472C85.0221 19.0992 84.8973 18.6416 84.8845 18.1744C84.8717 17.7072 84.8653 17.1792 84.8653 16.5904V7.576H87.1693V16.456C87.1693 16.872 87.1725 17.2368 87.1789 17.5504C87.1917 17.864 87.2589 18.12 87.3805 18.3184C87.6109 18.7024 87.9789 18.9168 88.4845 18.9616C88.9901 19.0064 89.5661 18.9808 90.2125 18.8848V20.824ZM82.9837 12.2704V10.456H90.2125V12.2704H82.9837Z" fill="#FAFAFA"/>
<path d="M99.6131 20.824V15.832C99.6131 15.5056 99.5907 15.144 99.5459 14.7472C99.5011 14.3504 99.3955 13.9696 99.2291 13.6048C99.0691 13.2336 98.8259 12.9296 98.4995 12.6928C98.1795 12.456 97.7443 12.3376 97.1939 12.3376C96.8995 12.3376 96.6083 12.3856 96.3203 12.4816C96.0323 12.5776 95.7699 12.744 95.5331 12.9808C95.3027 13.2112 95.1171 13.5312 94.9763 13.9408C94.8355 14.344 94.7651 14.8624 94.7651 15.496L93.3923 14.9104C93.3923 14.0272 93.5619 13.2272 93.9011 12.5104C94.2467 11.7936 94.7523 11.224 95.4179 10.8016C96.0835 10.3728 96.9027 10.1584 97.8755 10.1584C98.6435 10.1584 99.2771 10.2864 99.7763 10.5424C100.276 10.7984 100.672 11.1248 100.967 11.5216C101.261 11.9184 101.479 12.3408 101.62 12.7888C101.76 13.2368 101.85 13.6624 101.888 14.0656C101.933 14.4624 101.956 14.7856 101.956 15.0352V20.824H99.6131ZM92.4227 20.824V7H94.4867V14.2768H94.7651V20.824H92.4227Z" fill="#FAFAFA"/>
<path d="M109.174 21.112C108.125 21.112 107.203 20.8848 106.409 20.4304C105.616 19.976 104.995 19.3456 104.547 18.5392C104.105 17.7328 103.885 16.8048 103.885 15.7552C103.885 14.6224 104.102 13.64 104.537 12.808C104.973 11.9696 105.577 11.32 106.352 10.8592C107.126 10.3984 108.022 10.168 109.04 10.168C110.115 10.168 111.027 10.4208 111.776 10.9264C112.531 11.4256 113.091 12.1328 113.456 13.048C113.821 13.9632 113.958 15.0416 113.869 16.2832H111.574V15.4384C111.568 14.312 111.369 13.4896 110.979 12.9712C110.589 12.4528 109.974 12.1936 109.136 12.1936C108.189 12.1936 107.485 12.488 107.024 13.0768C106.563 13.6592 106.333 14.5136 106.333 15.64C106.333 16.6896 106.563 17.5024 107.024 18.0784C107.485 18.6544 108.157 18.9424 109.04 18.9424C109.609 18.9424 110.099 18.8176 110.509 18.568C110.925 18.312 111.245 17.944 111.469 17.464L113.753 18.1552C113.357 19.0896 112.742 19.816 111.91 20.3344C111.085 20.8528 110.173 21.112 109.174 21.112ZM105.603 16.2832V14.536H112.736V16.2832H105.603Z" fill="#FAFAFA"/>
<path d="M116.011 20.824V10.456H118.055V12.9808L117.806 12.6544C117.934 12.3088 118.103 11.9952 118.315 11.7136C118.532 11.4256 118.791 11.1888 119.092 11.0032C119.348 10.8304 119.63 10.696 119.937 10.6C120.251 10.4976 120.571 10.4368 120.897 10.4176C121.223 10.392 121.54 10.4048 121.847 10.456V12.616C121.54 12.5264 121.185 12.4976 120.782 12.5296C120.385 12.5616 120.027 12.6736 119.707 12.8656C119.387 13.0384 119.124 13.2592 118.919 13.528C118.721 13.7968 118.574 14.104 118.478 14.4496C118.382 14.7888 118.334 15.1568 118.334 15.5536V20.824H116.011Z" fill="#FAFAFA"/>
<path d="M133.094 6.78125V21H130.33L125.867 12.1035V21H123.152V6.78125H125.877L130.379 15.7754V6.78125H133.094ZM134.949 16.0781V15.3652C134.949 14.5384 135.047 13.806 135.242 13.168C135.444 12.5299 135.73 11.9961 136.102 11.5664C136.473 11.1302 136.919 10.8014 137.439 10.5801C137.967 10.3522 138.556 10.2383 139.207 10.2383C139.865 10.2383 140.454 10.3522 140.975 10.5801C141.502 10.8014 141.951 11.1302 142.322 11.5664C142.7 11.9961 142.99 12.5299 143.191 13.168C143.393 13.806 143.494 14.5384 143.494 15.3652V16.0781C143.494 16.8984 143.393 17.6276 143.191 18.2656C142.99 18.9036 142.7 19.4408 142.322 19.877C141.951 20.3132 141.505 20.6419 140.984 20.8633C140.464 21.0846 139.878 21.1953 139.227 21.1953C138.576 21.1953 137.986 21.0846 137.459 20.8633C136.938 20.6419 136.489 20.3132 136.111 19.877C135.734 19.4408 135.444 18.9036 135.242 18.2656C135.047 17.6276 134.949 16.8984 134.949 16.0781ZM137.684 15.3652V16.0781C137.684 16.5664 137.716 16.9896 137.781 17.3477C137.853 17.7057 137.954 18.002 138.084 18.2363C138.221 18.4707 138.383 18.6432 138.572 18.7539C138.761 18.8646 138.979 18.9199 139.227 18.9199C139.474 18.9199 139.695 18.8646 139.891 18.7539C140.086 18.6432 140.245 18.4707 140.369 18.2363C140.499 18.002 140.594 17.7057 140.652 17.3477C140.717 16.9896 140.75 16.5664 140.75 16.0781V15.3652C140.75 14.89 140.714 14.4733 140.643 14.1152C140.571 13.7507 140.47 13.4544 140.34 13.2266C140.21 12.9922 140.047 12.8164 139.852 12.6992C139.663 12.5755 139.448 12.5137 139.207 12.5137C138.966 12.5137 138.751 12.5755 138.562 12.6992C138.38 12.8164 138.221 12.9922 138.084 13.2266C137.954 13.4544 137.853 13.7507 137.781 14.1152C137.716 14.4733 137.684 14.89 137.684 15.3652ZM147.703 18.2168L149.549 10.4336H151.268L150.848 13.5977L149.031 21H147.596L147.703 18.2168ZM147.176 10.4336L148.436 18.1973L148.426 21H146.746L144.549 10.4336H147.176ZM152.654 18.0703L153.875 10.4336H156.521L154.314 21H152.635L152.654 18.0703ZM151.502 10.4336L153.348 18.1582L153.475 21H152.039L150.223 13.6172L149.812 10.4336H151.502Z" fill="white"/>
</svg>
